<svg enable-background="new 0 0 32 32" height="32" viewBox="0 0 32 32" width="32" xmlns="http://www.w3.org/2000/svg"><g fill="#828282"><path d="m19.515 11.952c-.678 0-1.18.171-1.573.387-.063-.224-.27-.388-.514-.339h-2.984c-.295-.049-.534.19-.443.5v11c-.091.28.148.52.443.5h2.984c.295.02.534-.22.534-.515l-.001-6.648c-.001-.003-.012-.321.189-.54.161-.174.438-.263.821-.263.638 0 .922.261 1.028.845v6.606c-.105.295.134.535.429.515h3.145c.295.02.534-.22.428-.515v-6.828c.105-3.472-2.368-4.705-4.486-4.705zm3.523 11.048h-2.076v-6.121c0-1.181-.763-1.913-1.99-1.913-.694 0-1.234.204-1.606.606-.517.56-.477 1.27-.366 1.428v6h-2.022v-9.98h1.916v.336c0 .203.115.39.298.479s.4.067.562-.056l.14-.108c.405-.319.824-.65 1.622-.65.826 0 3.523.263 3.523 3.637v6.342z"/><path d="m11 6.966c-1.122 0-2.034.912-2.034 2.034s.912 2.034 2.034 2.034 2.034-.912 2.034-2.034-.912-2.034-2.034-2.034zm0 3c-.532 0-.966-.434-.966-.966s.434-.966.966-.966.966.434.966.966-.434.966-.966.966z"/><path d="m12.428 11.951h-2.968c-.295 0-.534.239-.46.549v11c-.074.28.165.52.46.5h2.968c.295.02.534-.22.534-.515v-11c0-.295-.239-.534-.534-.534zm-.428 11.049h-2.006v-9.98h2.006z"/><path d="m16-.034c-8.842 0-16.034 7.192-16.034 16.034s7.192 16.034 16.034 16.034 16.034-7.192 16.034-16.034-7.192-16.034-16.034-16.034zm0 31c-8.252 0-14.966-6.714-14.966-14.966s6.714-14.966 14.966-14.966 14.966 6.714 14.966 14.966-6.714 14.966-14.966 14.966z"/></g></svg>